<?xml version="1.0" standalone="no"?><!DOCTYPE svg PUBLIC "-//W3C//DTD SVG 1.1//EN" "http://www.w3.org/Graphics/SVG/1.1/DTD/svg11.dtd"><svg t="1592881475281" class="icon" viewBox="0 0 1024 1024" version="1.1" xmlns="http://www.w3.org/2000/svg" p-id="12576" xmlns:xlink="http://www.w3.org/1999/xlink" width="32" height="32"><defs><style type="text/css"></style></defs><path fill='#333333' d="M795.861333 52.650667s12.16 4.266667 14.677334 10.282666a32 32 0 0 1 1.322666 5.674667l-0.085333 933.333333s-0.554667 3.285333-1.237333 4.864c-2.389333 5.717333-13.824 10.197333-13.824 10.197334H231.850667s-11.392-4.48-13.824-10.197334a34.090667 34.090667 0 0 1-1.237334-4.864V67.754667s0.597333-3.285333 1.237334-4.821334c2.432-5.717333 13.824-10.24 13.824-10.24l564.010666-0.042666zM280.704 116.608v836.48h467.157333V116.608H280.704z" p-id="12577"></path><path fill="#333333" d="M941.909333 953.130667s10.453333 2.346667 15.018667 5.546666a32.256 32.256 0 0 1 8.874667 43.178667 32.512 32.512 0 0 1-6.272 7.381333 32.426667 32.426667 0 0 1-14.421334 7.04c-2.816 0.597333-6.442667 0.682667-6.442666 0.682667H89.941333s-3.626667-0.085333-6.442666-0.682667a31.744 31.744 0 0 1-22.314667-17.237333 32.341333 32.341333 0 0 1 13.226667-42.069333c4.864-2.730667 15.530667-4.010667 15.530666-4.010667l851.968 0.170667zM588.714667 511.530667a32.213333 32.213333 0 0 1 29.184 43.392 31.445333 31.445333 0 0 1-15.829334 17.322666 32.938667 32.938667 0 0 1-13.354666 3.285334c-14.976 0.170667-30.122667 1.066667-45.141334-0.128a32.170667 32.170667 0 0 1-29.056-31.872 32.256 32.256 0 0 1 31.232-32c14.336-0.170667 28.672-0.170667 42.965334 0z" p-id="12578"></path><path fill="#333333" d="M642.005333 541.098667m-55.168 0a55.168 55.168 0 1 0 110.336 0 55.168 55.168 0 1 0-110.336 0Z" p-id="12579"></path></svg>