<?xml version="1.0" standalone="no"?><!DOCTYPE svg PUBLIC "-//W3C//DTD SVG 1.1//EN" "http://www.w3.org/Graphics/SVG/1.1/DTD/svg11.dtd"><svg t="1592881430179" class="icon" viewBox="0 0 1024 1024" version="1.1" xmlns="http://www.w3.org/2000/svg" p-id="11477" xmlns:xlink="http://www.w3.org/1999/xlink" width="32" height="32"><defs><style type="text/css"></style></defs><path d="M844.8 85.333333H179.2a8.533333 8.533333 0 0 0-8.533333 8.533334v836.266666a8.533333 8.533333 0 0 0 8.533333 8.533334h665.6a8.533333 8.533333 0 0 0 8.533333-8.533334V93.866667a8.533333 8.533333 0 0 0-8.533333-8.533334zM213.333333 896V128h277.333334v768z m597.333334 0h-277.333334V128H810.666667z" p-id="11478" fill="#333333"></path><path d="M371.2 394.666667a25.6 25.6 0 0 0-38.4 0l-71.253333 81.493333a25.173333 25.173333 0 0 0 0 31.146667 17.066667 17.066667 0 0 0 27.306666 0l42.666667-47.786667v157.44a21.333333 21.333333 0 0 0 42.666667 0v-157.44l42.666666 47.786667a17.92 17.92 0 0 0 27.306667 0 25.173333 25.173333 0 0 0 0-31.146667zM652.8 629.333333a25.6 25.6 0 0 0 38.4 0l71.253333-81.493333a25.173333 25.173333 0 0 0 0-31.146667 17.066667 17.066667 0 0 0-27.306666 0l-42.666667 47.786667V407.04a21.333333 21.333333 0 0 0-42.666667 0v157.44l-42.666666-47.786667a17.92 17.92 0 0 0-27.306667 0 25.173333 25.173333 0 0 0 0 31.146667z" p-id="11479" fill="#333333"></path></svg>