<?xml version="1.0" standalone="no"?><!DOCTYPE svg PUBLIC "-//W3C//DTD SVG 1.1//EN" "http://www.w3.org/Graphics/SVG/1.1/DTD/svg11.dtd"><svg t="1598517275222" class="icon" viewBox="0 0 1024 1024" version="1.1" xmlns="http://www.w3.org/2000/svg" p-id="9521" xmlns:xlink="http://www.w3.org/1999/xlink" width="32" height="32"><defs><style type="text/css"></style></defs><path d="M902.726121 990.970592h-16.584778V33.029007h16.584778a16.544621 16.544621 0 0 0 16.584778-16.504464A16.544621 16.544621 0 0 0 902.726121 0H106.937884A16.544621 16.544621 0 0 0 90.353107 16.524543c0 9.115604 7.429017 16.504464 16.584777 16.504464h16.5647v957.941585H106.937884a16.544621 16.544621 0 0 0-16.584777 16.504464c0 9.135683 7.429017 16.524543 16.584777 16.524542H902.726121a16.544621 16.544621 0 0 0 16.584778-16.524542 16.544621 16.544621 0 0 0-16.584778-16.504464z m-414.478896 0H156.672139V33.029007h331.575086v957.941585z m364.744641 0H521.416781V33.029007h331.575085v957.941585z" fill="#1890FF" p-id="9522" data-spm-anchor-id="a313x.7781069.0.i18" class="selected"></path><path d="M309.147687 390.324553v178.55742c0 8.975055 7.569566 16.263523 16.885955 16.263523 9.336467 0 16.885954-7.288468 16.885954-16.263523v-178.617655l96.53706 99.950392 24.736618-22.086266-138.139554-143.058768-138.179711 143.038689 24.736618 22.16658 96.53706-99.950392zM821.789996 425.863362l-24.776774-22.106344-96.496904 99.870079V325.069676c0-8.975055-7.569566-16.243445-16.885954-16.243444-9.336467 0-16.906033 7.268389-16.906033 16.263523v178.597577L570.227428 403.777097l-24.736618 22.086265 138.139554 143.038689 138.179711-143.01861z" fill="#1890FF" p-id="9523"></path></svg>