<?xml version="1.0" standalone="no"?><!DOCTYPE svg PUBLIC "-//W3C//DTD SVG 1.1//EN" "http://www.w3.org/Graphics/SVG/1.1/DTD/svg11.dtd"><svg t="1592881442725" class="icon" viewBox="0 0 1024 1024" version="1.1" xmlns="http://www.w3.org/2000/svg" p-id="11728" xmlns:xlink="http://www.w3.org/1999/xlink" width="32" height="32"><defs><style type="text/css"></style></defs><path d="M793.6 0a51.2 51.2 0 0 1 51.2 51.2v921.6h76.8a25.6 25.6 0 1 1 0 51.2H102.4a25.6 25.6 0 1 1 0-51.2h76.8V51.2a51.2 51.2 0 0 1 51.2-51.2h563.2z m-25.6 51.2H256a25.6 25.6 0 0 0-25.6 25.6v870.4a25.6 25.6 0 0 0 25.6 25.6h512a25.6 25.6 0 0 0 25.6-25.6V76.8a25.6 25.6 0 0 0-25.6-25.6z m-102.4 76.8a51.2 51.2 0 0 1 51.2 51.2v256a51.2 51.2 0 0 1-51.2 51.2H358.4a51.2 51.2 0 0 1-51.2-51.2V179.2a51.2 51.2 0 0 1 51.2-51.2h307.2z m-25.6 51.2H384a25.6 25.6 0 0 0-25.6 25.6v204.8a25.6 25.6 0 0 0 25.6 25.6h256a25.6 25.6 0 0 0 25.6-25.6V204.8a25.6 25.6 0 0 0-25.6-25.6z m-179.2 691.2l179.2-179.2h-102.4l25.6-128-153.6 179.2h102.4l-51.2 128z" fill="#333333" p-id="11729"></path></svg>