<?xml version="1.0" standalone="no"?><!DOCTYPE svg PUBLIC "-//W3C//DTD SVG 1.1//EN" "http://www.w3.org/Graphics/SVG/1.1/DTD/svg11.dtd"><svg t="1598517106853" class="icon" viewBox="0 0 1024 1024" version="1.1" xmlns="http://www.w3.org/2000/svg" p-id="6578" xmlns:xlink="http://www.w3.org/1999/xlink" width="32" height="32"><defs><style type="text/css"></style></defs><path d="M859.428571 928h-32V64c0-35.2-28.8-64-64-64H260.571429C225.371429 0 196.571429 28.8 196.571429 64v864H164.571429c-15.085714 0-27.428571 12.342857-27.428572 27.428571v41.142858c0 15.085714 12.342857 27.428571 27.428572 27.428571h694.857142c15.085714 0 27.428571-12.342857 27.428572-27.428571v-41.142858c0-15.085714-12.342857-27.428571-27.428572-27.428571z m-398.171428-50.285714L501.714286 731.428571h-110.857143l171.885714-219.428571L522.285714 658.285714h110.857143L461.257143 877.714286zM714.285714 381.714286c0 27.771429-22.514286 50.285714-50.285714 50.285714H360c-27.771429 0-50.285714-22.514286-50.285714-50.285714V164.571429c0-27.657143 22.628571-50.285714 50.285714-50.285715h304c27.657143 0 50.285714 22.628571 50.285714 50.285715v217.142857z" p-id="6579" data-spm-anchor-id="a313x.7781069.0.i9" class="selected" fill="#1890FF"></path></svg>