<?xml version="1.0" standalone="no"?><!DOCTYPE svg PUBLIC "-//W3C//DTD SVG 1.1//EN" "http://www.w3.org/Graphics/SVG/1.1/DTD/svg11.dtd"><svg t="1598516946387" class="icon" viewBox="0 0 1024 1024" version="1.1" xmlns="http://www.w3.org/2000/svg" p-id="1426" width="32" height="32" xmlns:xlink="http://www.w3.org/1999/xlink"><defs><style type="text/css"></style></defs><path d="M45.702918 608.812295h18.257296v245.766189c0 21.639095 17.505785 39.122777 39.122777 39.122777h21.661198c21.616992 0 39.122777-17.483682 39.122777-39.122777v-200.211363a38.680711 38.680711 0 0 1 38.968054-38.680711l91.441202 0.707304a38.680711 38.680711 0 0 1 38.371265 38.680712v199.481955c0 21.639095 17.505785 39.122777 39.122777 39.122776h549.354516a39.122777 39.122777 0 0 0 39.122777-39.100673l0.088413-245.788292h18.213089a45.333794 45.333794 0 0 0 44.383353-55.766535L945.084718 225.806942a124.330858 124.330858 0 0 0-120.75013-95.552409H200.027905a124.264548 124.264548 0 0 0-120.750129 95.552409l-77.847695 327.128302a45.223277 45.223277 0 0 0 8.576066 38.636505c8.59817 10.985322 21.771715 17.240546 35.696771 17.240546z m398.875497 29.618373c0-16.356415 13.261958-29.618373 29.618373-29.618373h322.77396c16.356415 0 29.59627 13.284061 29.59627 29.618373v117.302021c0 16.356415-13.261958 29.59627-29.59627 29.59627H474.196788a29.618373 29.618373 0 0 1-29.618373-29.59627v-117.302021z" p-id="1427" fill="#1890FF"></path></svg>